<svg xmlns="http://www.w3.org/2000/svg" id="Layer_1" data-name="Layer 1"
  viewBox="66.58 726.17 1166.8 1434.88">
  <defs>
    <style>.cls-1{fill:#d9d9d9}</style>
  </defs>
  <polygon class="cls-1"
    points="928.58 729.14 675.37 1428.72 715.01 1428.72 968.23 729.14 928.58 729.14" />
  <polygon class="cls-1"
    points="867.81 729.14 615.47 1428.72 655.11 1428.72 908.33 729.14 867.81 729.14" />
  <polygon class="cls-1"
    points="926.52 889.89 1121.12 1428.72 1160.77 1428.72 945.18 832.7 926.52 889.89" />
  <polygon class="cls-1"
    points="955.59 805.95 1179.66 1424.91 1181.04 1428.72 1220.67 1428.72 975.37 750.34 955.59 805.95" />
  <polygon class="cls-1"
    points="808.77 729.14 555.56 1428.72 595.22 1428.72 847.55 729.14 808.77 729.14" />
  <polygon class="cls-1"
    points="896.54 972.82 1061.22 1428.72 1100.86 1428.72 916.32 917.2 896.54 972.82" />
  <polygon class="cls-1"
    points="787.39 1277.69 773.75 1314.9 1004.21 1314.9 990.56 1277.69 787.39 1277.69" />
  <polygon class="cls-1"
    points="794.29 1258.42 983.67 1258.42 970.02 1221.21 807.93 1221.21 794.29 1258.42" />
  <polygon class="cls-1"
    points="828.47 1163.87 814.83 1201.08 963.13 1201.08 949.48 1163.87 828.47 1163.87" />
  <path class="cls-1"
    d="M509.15,1724.19c18.35-15.9,27.66-39.25,27.66-69.39s-9.31-53.48-27.67-69.4c-18.12-15.7-40.41-23.66-66.24-23.66H236v37.2H442.9c15.91,0,29.16,4.36,40.49,13.31,10.76,8.51,16.21,22.83,16.21,42.55,0,19.47-5.32,33.26-16.26,42.16-11.32,9.21-24.55,13.69-40.44,13.69H236v37.2H442.9C468.75,1747.85,491,1739.89,509.15,1724.19Z" />
  <path class="cls-1"
    d="M547.09,1834.85A197.41,197.41,0,0,0,622,1762.6c18.44-30.73,27.78-67,27.78-107.8S640.43,1577.72,622,1547a197.52,197.52,0,0,0-74.9-72.26c-31.26-17.23-66.31-26-104.19-26H236V1486H442.9c31.38,0,60.27,7,85.84,20.7a157.17,157.17,0,0,1,61.11,58.64c15.07,25.23,22.72,55.33,22.72,89.47s-7.65,64.25-22.72,89.46a156.89,156.89,0,0,1-61.11,58.64c-25.55,13.74-54.43,20.71-85.84,20.71H236v37.21H442.9C480.8,1860.82,515.85,1852.08,547.09,1834.85Z" />
  <path class="cls-1"
    d="M537.26,2005.89c19.58-19.57,29.5-45.27,29.5-76.39,0-25.5-6.33-48.68-18.83-68.92l-2.93-4.74-4.83,2.76q-5.86,3.35-11.71,6.28a64.49,64.49,0,0,1-11,4.31l-7.8,2.23,4.67,6.63c10.09,14.35,15.21,31.66,15.21,51.45,0,20.86-6.17,37.16-18.85,49.84-12.51,12.51-33.89,18.85-63.53,18.85H233.46v37.2H447.18C487.38,2035.39,517.68,2025.47,537.26,2005.89Z" />
  <path class="cls-1"
    d="M577.06,2045.69C607.7,2015,623.24,1976,623.24,1929.5a214.55,214.55,0,0,0-6.6-53.64,157.64,157.64,0,0,0-19.12-45.3l-3.85-6.07-5.09,5.09c-2.19,2.19-4.93,4.66-8.17,7.35a55.88,55.88,0,0,1-10.86,7l-5.48,2.74,3.06,5.3a135.38,135.38,0,0,1,13.94,35.72,176.15,176.15,0,0,1,5,41.84c0,36.46-11.81,66.77-35.11,90.06s-58.21,35.11-103.75,35.11H233.46v37.21H447.18C502.71,2091.88,546.41,2076.34,577.06,2045.69Z" />
  <path class="cls-1"
    d="M518.38,1786.1a142.6,142.6,0,0,0,54.38-51.7c13.63-22.23,20.54-49,20.54-79.6s-6.91-57.38-20.54-79.61a142.66,142.66,0,0,0-54.38-51.69c-22.46-12.1-47.85-18.24-75.48-18.24H236v37.2H442.9c31.46,0,58.52,10,80.43,29.76,21.74,19.6,32.76,47.38,32.76,82.58s-11,63-32.76,82.57c-21.9,19.75-49,29.76-80.43,29.76H236v37.2H442.9C470.56,1804.33,496,1798.2,518.38,1786.1Z" />
  <path class="cls-1"
    d="M632.19,1782.16l-4.31,7.55a44.52,44.52,0,0,1-7.2,9.49c-3,3-6.21,5.92-9.46,8.63l-4.19,3.48,3.25,4.38c10.91,14.74,19.09,32.08,24.31,51.54a241.52,241.52,0,0,1,7.93,62.27c0,34.75-7.95,66.18-23.62,93.4s-38.21,48.9-67.07,64.56-64.17,23.69-104.65,23.69H233.46v37.21H447.18c47,0,88.36-9.6,123-28.52s62-45.33,81-78.35,28.58-70.65,28.58-112c0-56.37-14.22-103.62-42.26-140.42Z" />
  <rect class="cls-1" x="179.54" y="1448.78" width="37.21" height="699.58" />
  <rect class="cls-1" x="123.06" y="1448.78" width="37.21" height="699.58" />
  <rect class="cls-1" x="66.58" y="1448.78" width="37.2" height="699.58" />
  <path class="cls-1"
    d="M1176.73,1809.25c-37-33.22-91-60.56-160.52-81.25l-48.81-14.56c-32.56-9.53-59.11-19.75-78.92-30.36-18.39-9.83-27.33-22.16-27.33-37.7,0-17.28,9.79-31,29.94-42,21-11.45,47-17.26,77.26-17.26,31.84,0,58.05,6.05,77.89,18,19.26,11.61,29.13,26.06,30.17,44.17l.39,6.67h37.14s.34-20.11-7.56-37.57l-.11,0c-7.39-17.12-20.35-31.78-39-43.64-25.94-16.5-59.23-24.86-98.93-24.86-40.87,0-75.32,8.8-102.39,26.15-27.87,17.89-42,42.12-42,72,0,26,12.12,46.88,36,62.19,22.61,14.5,55.37,28,97.36,40.06l50.49,14.55c60,17.37,107,40.59,139.89,69,32.18,27.82,48.5,65.51,48.5,112,0,35.12-9.58,66.39-28.46,92.93-19,26.7-45.84,47.93-79.81,63.11-34.16,15.29-74.69,23-120.45,23-40.18,0-76.62-6.21-108.32-18.44-31.52-12.16-57.41-29.35-76.95-51.11s-32.08-47.6-37.56-77.2l-1.14-6.17h0c-1.41-12-2.06-28.85-2.06-28.85H704.35a243.65,243.65,0,0,0,3.13,38.79h0l1,5.25c7,35.69,22.61,67,46.32,93s54,46.3,90.31,60.54c36.17,14.17,77.33,21.36,122.34,21.36,51.91,0,98.35-9.09,138-27,39.85-18,71.45-43.59,93.93-76s34-70,34-111.54C1233.42,1889.28,1214.35,1843.06,1176.73,1809.25Z" />
  <path class="cls-1"
    d="M1130.32,1842.45c-30.14-24.62-72.6-44.71-126.17-59.7l-51.33-14.54c-48.75-14-86.3-30.41-111.59-48.76-24.6-17.84-36.56-41.51-36.56-72.36,0-22.52,6.93-42.78,20.59-60.19,13.86-17.66,33.37-31.74,58-41.87,24.86-10.22,53.49-15.4,85.1-15.4,44.85,0,82.82,9.77,112.84,29,29.84,19.18,46.21,43.85,50,75.43l.8,6.59h0c.53,7.8.78,14.28.78,14.28h37.14s1.82-16.36-3.39-38.5a133.8,133.8,0,0,0-32.19-61.39c-18.22-20-41.85-35.6-70.24-46.44-28.22-10.75-60.44-16.21-95.76-16.21-37.71,0-72.17,6.64-102.42,19.73-30.47,13.18-54.71,31.5-72,54.45-17.53,23.16-26.42,50.24-26.42,80.49,0,40.48,15.72,73.39,46.7,97.81,30.11,23.76,73.69,43.68,129.53,59.22l52.24,14.56c45.25,12.29,81.15,28.52,106.67,48.21,25,19.29,37.13,44.81,37.13,78,0,23.69-7.09,45-21.06,63.24-14.15,18.49-34.35,33.13-60.06,43.52-26,10.51-56.66,15.84-91.12,15.84-47.16,0-86.28-9.77-116.27-29s-46.52-43.89-50.89-75.52l-.83-6c-.55-8-.81-14.7-.81-14.7H761.56s-1.83,16.46,3.44,38.7l.16,0c8.31,35.49,29.91,64.87,64.4,87.39,37,24.19,83.39,36.45,137.93,36.45,41.12,0,77.74-6.78,108.82-20.15,31.33-13.47,56.17-32.38,73.82-56.2,17.78-24,26.8-52.1,26.8-83.45C1176.93,1902.22,1161.25,1867.75,1130.32,1842.45Z" />
  <path class="cls-1"
    d="M1224,1616.16l-1-5.2a186.92,186.92,0,0,0-45.46-92.67c-23.58-26.2-53.67-46.71-89.44-61s-75.93-21.38-119.8-21.38c-48.54,0-92.69,9.11-131.23,27.07s-69.67,43-92.11,74.17c-22.58,31.38-34,67.78-34,108.2,0,56.26,18.8,101.2,55.89,133.57,36.41,31.79,91,58.39,162.21,79.07l53.11,15.42c31.84,8.94,57.23,19.36,75.48,31,17.21,10.95,25.58,24.76,25.58,42.21,0,18.5-10.12,33.39-31,45.5-21.52,12.55-50,18.9-84.81,18.9-33.61,0-61.28-6.21-82.24-18.46-20.23-11.82-30.06-26-30.09-43.32v-7H817.55a105.23,105.23,0,0,0,2.24,20.81c4.11,25.06,19,45.55,44.61,60.86,27,16.16,61.69,24.35,103.09,24.35,45.45,0,82.52-9.4,110.18-27.93,28.39-19,42.78-44.4,42.78-75.39,0-28.1-11.75-50.7-35-67.17-22.13-15.73-53.55-29.26-93.38-40.23l-53-14.55c-63.32-17.36-111.65-40.13-143.68-67.7-31.32-27-47.21-63.35-47.21-108.17,0-33.37,9.56-63.32,28.41-89,19-25.87,45.32-46.72,78.21-61.93,33-15.27,71.24-23,113.55-23,38.42,0,73.7,6.2,104.86,18.42,31,12.17,56.72,29.52,76.55,51.55a150.64,150.64,0,0,1,37.12,76.7l1.06,6.28c1.42,12,2.07,28.85,2.07,28.85h37.13A243.72,243.72,0,0,0,1224,1616.16Z" />
  <rect class="cls-1" x="236.97" y="1277.91" width="305.5" height="37.36" />
  <rect class="cls-1" x="236.97" y="1334.63" width="305.5" height="37.36" />
  <rect class="cls-1" x="66.81" y="726.17" width="37.36" height="702.55" />
  <rect class="cls-1" x="123.53" y="726.17" width="37.36" height="702.55" />
  <rect class="cls-1" x="180.25" y="726.17" width="37.36" height="702.55" />
  <rect class="cls-1" x="236.97" y="1391.35" width="305.5" height="37.36" />
</svg>